<?xml version="1.0" standalone="no"?>
<!DOCTYPE svg PUBLIC "-//W3C//DTD SVG 20010904//EN"
 "http://www.w3.org/TR/2001/REC-SVG-20010904/DTD/svg10.dtd">
<svg version="1.0" xmlns="http://www.w3.org/2000/svg"
 width="1280.000000pt" height="1276.000000pt" viewBox="0 0 1280.000000 1276.000000"
 preserveAspectRatio="xMidYMid meet">
<metadata>
Created by potrace 1.15, written by Peter Selinger 2001-2017
</metadata>
<g transform="translate(0.000000,1276.000000) scale(0.100000,-0.100000)"
fill="#ff5722" stroke="none">
<path d="M6036 12738 c-28 -46 -28 -76 4 -167 34 -100 36 -111 17 -111 -21 0
-44 31 -56 76 -14 51 -47 86 -62 64 -21 -32 -5 -134 34 -214 44 -88 49 -91
170 -84 101 5 170 34 200 85 l20 34 96 -93 c53 -52 144 -137 202 -190 58 -54
134 -131 168 -171 l61 -74 148 -6 c273 -11 400 -49 1007 -297 328 -134 540
-194 802 -225 l51 -7 17 -51 c37 -115 122 -205 259 -274 77 -39 189 -83 209
-83 7 0 21 16 31 36 9 20 74 91 143 158 73 71 137 142 155 173 34 60 78 83
158 83 48 0 50 1 50 27 0 14 12 60 26 101 16 47 23 84 19 102 -6 25 -10 28
-67 33 -37 3 -67 12 -77 22 -15 15 -13 19 24 52 183 161 395 278 765 422 l185
73 59 -23 c81 -30 139 -89 156 -158 l12 -51 -35 -43 c-43 -53 -98 -92 -174
-122 -72 -29 -74 -39 -39 -176 30 -115 32 -156 10 -187 -18 -26 -39 -27 -103
-6 -27 8 -62 14 -77 12 -28 -3 -29 -6 -37 -68 -4 -36 -19 -88 -33 -117 -43
-89 -88 -119 -354 -229 -94 -39 -124 -57 -170 -102 l-55 -53 27 -15 c34 -18
42 -43 39 -126 -2 -63 -1 -69 31 -103 42 -45 89 -57 183 -45 96 13 159 12 189
-1 l25 -12 -31 -35 c-47 -54 -68 -108 -68 -180 0 -61 24 -131 50 -147 23 -14
7 -25 -38 -25 -35 0 -68 10 -121 36 -65 32 -76 34 -102 24 -34 -14 -33 -13
-15 -48 23 -44 65 -76 164 -127 100 -51 148 -97 158 -153 5 -25 2 -38 -14 -55
-56 -63 -56 -114 2 -238 24 -52 47 -106 50 -121 6 -26 4 -28 -27 -28 -36 0
-107 40 -147 85 -28 30 -50 43 -91 55 l-29 9 0 -172 0 -172 133 -49 c492 -180
757 -368 917 -651 30 -52 34 -69 35 -130 1 -91 20 -130 134 -272 49 -61 126
-164 172 -229 172 -242 288 -344 390 -346 33 0 109 33 109 48 0 21 -334 631
-438 799 -110 179 -287 429 -404 569 l-32 39 49 -5 c28 -3 82 -19 122 -36 75
-34 121 -40 152 -20 19 11 19 12 -1 38 -17 24 -19 39 -15 159 l4 132 39 42
c80 84 180 239 294 452 62 116 143 257 173 298 17 25 18 34 8 67 -18 59 -13
143 20 367 37 254 38 428 1 523 -33 83 -78 140 -111 140 -15 0 -64 16 -108 35
-45 19 -92 35 -105 35 -23 0 -68 -25 -58 -32 3 -2 22 -11 42 -22 60 -30 85
-78 124 -236 33 -136 61 -211 84 -225 6 -4 -2 -18 -19 -35 -54 -55 -59 -116
-25 -309 15 -83 15 -84 -8 -108 -39 -42 -97 -70 -281 -132 -173 -60 -241 -92
-252 -120 -9 -23 0 -23 76 8 41 15 89 31 108 35 29 5 32 4 26 -12 -17 -39 -18
-82 -1 -88 22 -9 46 -56 46 -92 l0 -28 -92 0 -93 1 -3 27 c-3 23 3 32 34 50
20 12 32 24 26 26 -6 2 -69 -8 -140 -22 -134 -25 -196 -50 -240 -93 l-26 -26
35 -18 c19 -10 45 -27 58 -38 l25 -19 -32 -27 c-58 -49 -65 -73 -72 -260 -8
-193 -20 -237 -84 -292 -36 -33 -37 -33 -74 -17 -123 51 -232 163 -232 239 0
37 10 48 62 64 21 7 40 16 43 20 2 5 -4 26 -15 48 -37 78 -43 126 -36 297 4
88 10 192 14 229 l7 69 56 1 c48 2 65 8 112 40 63 44 72 64 52 121 -28 81 -16
106 52 106 35 0 50 6 82 35 21 19 43 35 48 35 6 0 13 18 17 41 8 52 42 117 99
196 96 130 112 200 69 297 l-22 49 -76 -6 c-97 -9 -154 -34 -277 -125 -56 -41
-117 -81 -136 -89 l-33 -14 20 -22 c25 -28 38 -54 45 -94 6 -29 3 -35 -26 -50
-25 -14 -55 -18 -142 -18 -123 1 -171 16 -239 76 -65 57 -99 149 -55 149 12 0
61 13 110 30 289 97 449 335 504 750 l5 45 67 -3 66 -4 66 70 c102 108 130
116 152 45 18 -62 44 -66 140 -22 41 19 73 29 78 23 5 -5 34 -67 67 -139 61
-137 107 -218 142 -248 20 -19 21 -18 47 33 35 68 36 139 5 200 -13 25 -82
106 -155 180 -173 178 -190 210 -190 368 l0 112 -75 40 c-120 62 -203 81 -372
87 -156 6 -253 -4 -386 -38 -283 -73 -617 -250 -825 -438 -34 -30 -55 -40
-106 -49 -115 -20 -235 -89 -381 -216 -41 -36 -78 -66 -83 -66 -9 0 -37 61
-72 157 -36 100 -113 167 -130 114 -9 -31 -99 -108 -159 -138 l-55 -27 -88 42
c-145 68 -218 73 -263 15 -30 -38 -25 -59 22 -93 91 -66 237 -78 442 -35 66
14 128 27 138 31 10 3 18 0 18 -7 0 -6 16 -29 36 -51 50 -56 45 -85 -20 -118
-82 -41 -74 -54 30 -47 136 8 164 -12 113 -83 -35 -48 -75 -75 -142 -95 l-49
-14 -71 72 c-118 120 -240 173 -595 257 -112 27 -207 52 -210 55 -3 3 0 38 6
78 10 59 10 80 -1 112 -13 39 -19 43 -183 125 -93 47 -288 134 -434 194 -435
178 -615 270 -788 403 -109 85 -126 85 -196 10 -29 -32 -57 -57 -63 -57 -6 0
-34 31 -62 68 -55 72 -94 102 -133 102 -50 0 -61 -45 -33 -136 22 -71 19 -110
-7 -128 -12 -9 -31 -16 -41 -16 -34 0 -82 62 -118 149 -32 80 -83 151 -107
151 -7 0 -18 -10 -26 -22z m5228 -1703 c19 -14 19 -15 1 -35 -10 -11 -29 -20
-42 -20 -19 0 -23 5 -23 28 0 16 3 32 7 35 11 11 37 7 57 -8z m-648 -421 c32
-8 30 -20 -6 -39 -16 -8 -34 -23 -39 -32 -10 -17 -12 -17 -26 1 -30 39 -6 95
33 81 8 -3 25 -8 38 -11z m395 -14 c48 0 49 -1 49 -30 0 -75 -128 -114 -207
-64 -17 11 -23 24 -23 50 0 42 25 56 89 49 24 -3 66 -5 92 -5z m409 -775 c21
-26 4 -45 -40 -45 -46 0 -54 19 -18 44 28 20 42 20 58 1z"/>
<path d="M5685 12678 c-2 -7 -5 -63 -8 -125 -3 -105 -5 -115 -35 -163 -21 -34
-27 -50 -17 -50 7 0 35 -17 62 -39 56 -44 105 -71 128 -71 21 0 20 67 -2 193
-16 96 -13 152 11 208 5 12 -4 21 -43 38 -56 24 -90 27 -96 9z"/>
<path d="M5435 12594 c-94 -18 -205 -73 -369 -183 -75 -51 -161 -103 -190
-117 -82 -38 -201 -64 -290 -65 l-81 0 -45 -71 c-96 -150 -269 -283 -620 -477
-102 -57 -232 -134 -290 -173 -103 -69 -106 -70 -140 -58 -85 29 -306 146
-424 224 -185 123 -297 217 -501 417 l-180 177 -95 16 c-52 9 -158 27 -235 41
-361 63 -559 50 -659 -43 -26 -25 -65 -94 -66 -117 0 -6 76 -10 208 -11 171
-1 225 -5 308 -22 314 -67 494 -216 536 -444 10 -54 16 -68 31 -68 59 0 114
-51 124 -116 l6 -34 -45 0 c-29 0 -50 -6 -58 -15 -15 -18 -21 -15 65 -44 86
-28 165 -80 196 -127 l24 -35 55 8 c140 20 183 6 256 -82 l36 -45 -26 -44
c-14 -24 -59 -88 -100 -143 -92 -124 -128 -191 -134 -254 -4 -45 -6 -49 -26
-42 -11 5 -55 8 -96 8 -65 0 -84 -4 -140 -32 -36 -18 -103 -65 -150 -104 -170
-144 -261 -187 -374 -176 -34 3 -75 11 -93 17 -60 22 -52 79 14 101 74 23 87
60 28 79 -20 7 -43 22 -51 35 -14 22 -13 29 15 93 17 39 31 75 31 80 0 6 -15
15 -33 21 -18 6 -49 25 -70 42 -41 34 -49 77 -23 115 13 19 11 22 -40 48 -100
52 -174 162 -202 296 -6 30 -18 141 -27 246 -8 105 -23 222 -33 260 l-18 69
-60 -2 c-118 -3 -225 -65 -277 -160 -38 -71 -55 -155 -67 -343 -10 -143 -17
-192 -46 -305 -5 -17 8 -27 77 -60 113 -55 216 -123 263 -175 44 -49 93 -149
98 -199 l3 -33 -127 1 -126 2 -26 -33 c-41 -55 -85 -159 -92 -220 l-7 -58 37
0 c86 0 95 -35 41 -153 -19 -42 -35 -84 -35 -94 0 -28 45 -66 125 -106 89 -45
125 -82 132 -137 l6 -42 45 5 c116 13 235 -25 386 -123 l95 -61 -169 -165
c-93 -91 -188 -179 -211 -196 -45 -33 -145 -81 -190 -91 -25 -6 -27 -4 -33 36
-10 61 -45 114 -122 181 -74 66 -103 118 -104 184 l0 42 -65 0 c-123 0 -165
35 -165 137 0 62 0 63 -27 63 -16 0 -52 -11 -81 -25 -30 -14 -62 -25 -71 -25
-53 0 -56 81 -6 160 46 71 46 105 1 124 -53 22 -196 56 -237 56 -30 0 -43 -7
-74 -41 -69 -77 -96 -173 -75 -275 13 -70 68 -280 80 -311 8 -20 134 -108 323
-224 252 -155 368 -281 420 -456 15 -50 15 -53 -9 -100 -13 -26 -55 -84 -93
-129 l-69 -81 5 -65 c8 -98 1 -115 -130 -307 -26 -37 -37 -64 -37 -90 l0 -36
20 33 c25 41 66 42 89 1 15 -26 13 -30 -90 -165 -57 -75 -125 -161 -152 -190
-58 -64 -60 -90 -12 -164 48 -76 46 -107 -11 -211 -26 -46 -102 -198 -170
-337 -168 -345 -271 -522 -382 -656 l-41 -49 20 -26 c44 -56 182 -202 224
-236 l44 -37 29 33 c24 27 37 33 85 37 140 11 106 -97 -49 -153 -41 -15 -78
-33 -81 -40 -2 -7 5 -50 17 -94 17 -63 29 -87 52 -106 28 -24 32 -25 48 -10
10 9 24 31 31 48 17 45 59 87 86 87 39 0 31 -49 -17 -94 -25 -24 -40 -47 -40
-62 0 -26 4 -29 63 -39 52 -8 61 -34 35 -100 -48 -123 -53 -142 -36 -166 13
-20 22 -22 72 -20 68 3 101 -14 122 -64 19 -47 17 -122 -5 -171 l-19 -42 24
-11 c13 -5 54 -15 91 -22 37 -6 79 -18 91 -26 22 -13 22 -16 8 -32 -22 -24
-21 -32 19 -107 19 -36 35 -73 35 -82 0 -8 -32 -62 -70 -119 -84 -123 -89
-133 -64 -133 11 0 38 -9 62 -20 51 -23 53 -39 17 -154 -14 -43 -24 -80 -22
-82 9 -9 79 20 113 47 51 41 111 69 152 69 38 0 40 -12 12 -58 -15 -25 -45
-44 -125 -83 -119 -57 -146 -85 -153 -160 -4 -47 -3 -49 20 -49 13 0 58 11 98
25 40 14 81 25 90 25 18 0 50 -30 50 -46 0 -6 -38 -53 -85 -105 -47 -52 -97
-117 -112 -146 -26 -49 -27 -53 -11 -69 24 -25 68 -20 129 14 90 50 98 30 43
-102 -50 -120 -148 -272 -332 -515 -86 -114 -182 -250 -213 -302 l-57 -94 69
-66 c68 -66 82 -95 56 -117 -9 -8 -35 -5 -92 9 -86 22 -136 20 -166 -7 -15
-14 -19 -31 -19 -89 l0 -71 63 4 c55 4 67 1 91 -19 37 -33 44 -87 19 -161
l-20 -58 134 0 133 0 0 -75 c0 -79 19 -145 42 -145 27 1 93 46 116 80 21 30
23 44 20 105 -4 82 -36 158 -123 292 -31 47 -55 86 -53 88 2 1 27 15 56 29
197 99 400 276 583 506 76 96 247 334 256 358 4 8 30 12 84 12 l79 0 0 -43 c0
-24 -7 -65 -16 -90 -15 -43 -15 -50 0 -71 14 -23 22 -24 173 -31 87 -4 232 -5
322 -2 l163 6 -6 -27 c-20 -88 -20 -89 11 -105 35 -19 53 -10 83 38 20 33 65
65 90 65 14 0 12 -50 -4 -79 -10 -19 -11 -31 -3 -49 10 -21 15 -23 46 -15 44
10 186 9 344 -2 l118 -8 25 -53 c54 -115 165 -202 303 -239 l54 -14 -6 82 c-3
45 -17 143 -31 217 -59 318 -53 509 21 653 14 27 13 30 -30 77 -80 89 -85 167
-23 371 48 159 66 232 66 267 0 29 -1 30 -57 34 -46 4 -69 13 -112 41 -84 58
-83 58 -271 -110 -94 -85 -180 -137 -197 -120 -3 4 17 32 44 64 75 87 120 154
152 224 34 77 44 127 35 175 l-7 36 -53 -4 c-58 -5 -93 -28 -120 -80 -18 -35
-18 -115 1 -152 8 -15 15 -29 15 -30 0 0 -23 -2 -50 -3 -75 -2 -99 -21 -183
-153 -52 -80 -94 -110 -154 -110 -58 0 -79 12 -93 54 -11 33 -7 66 15 119 6
15 1 17 -41 17 -27 0 -95 11 -152 25 -133 32 -184 32 -241 0 -24 -14 -45 -24
-46 -23 -1 2 -12 21 -23 43 -11 22 -40 59 -64 82 -45 43 -56 50 -229 132 -70
33 -125 67 -158 98 -50 46 -53 53 -80 157 -16 59 -41 131 -55 158 l-26 50 40
44 c49 53 52 87 12 165 -36 71 -57 74 -111 17 -34 -35 -44 -40 -51 -28 -21 32
-11 99 25 170 39 78 43 105 17 137 -31 42 -101 6 -182 -92 -27 -33 -78 -75
-91 -75 -4 0 -3 16 3 36 19 71 -12 120 -100 160 l-53 23 39 39 c28 28 43 54
52 92 14 57 7 69 -35 70 -28 0 -81 34 -97 62 -8 16 -11 54 -9 123 2 55 4 118
5 140 1 35 -2 40 -24 44 -14 1 -49 -3 -79 -10 -49 -12 -55 -11 -67 6 -28 38
-16 63 89 185 34 39 38 50 34 82 -3 24 -21 58 -50 95 -82 104 -73 153 57 313
71 87 80 102 101 160 14 40 14 40 -16 55 -16 9 -55 39 -85 66 -46 42 -60 50
-82 44 -25 -6 -25 -6 -9 17 37 51 88 148 108 204 30 80 32 214 5 264 l-19 34
24 15 c13 8 60 52 104 97 44 45 93 90 108 100 l28 17 -7 122 c-12 211 18 323
107 396 156 129 190 183 168 264 -6 21 -18 49 -26 61 -13 21 -12 23 14 28 25
6 100 -9 143 -28 12 -5 19 4 28 38 25 94 153 175 288 184 65 4 74 2 74 -12 0
-30 -30 -77 -92 -143 -75 -81 -100 -135 -97 -211 3 -55 2 -57 -35 -84 -21 -15
-87 -54 -146 -87 -193 -108 -258 -170 -267 -255 l-6 -46 37 0 c51 0 99 27 184
104 58 53 79 66 105 66 18 0 37 -4 43 -10 6 -6 -48 -67 -146 -167 -85 -87
-189 -201 -232 -253 -88 -109 -248 -331 -248 -344 0 -5 35 -6 79 -2 65 6 81 4
95 -9 19 -19 14 -32 -42 -108 -44 -61 -61 -108 -62 -170 0 -97 34 -137 180
-206 47 -22 93 -47 104 -55 17 -14 17 -16 -8 -49 -73 -96 -36 -168 159 -311
44 -32 93 -70 108 -85 l28 -26 -3 205 c-3 184 -5 209 -24 245 -11 22 -35 49
-52 60 -17 11 -31 25 -32 32 0 6 29 38 65 70 60 54 78 84 56 97 -4 3 -17 -4
-27 -15 -41 -45 -118 -65 -130 -34 -8 21 50 95 194 247 124 131 163 180 202
257 28 56 53 139 46 156 -2 7 -22 19 -43 25 -54 18 -63 28 -63 68 0 33 12 48
160 191 88 86 174 176 190 201 26 40 28 46 14 61 -24 26 -46 28 -110 8 -71
-22 -108 -24 -123 -5 -10 12 4 30 74 98 101 98 122 110 190 112 l52 1 -23 35
c-37 55 -32 82 31 150 56 61 62 74 45 100 -7 12 -19 7 -70 -28 -83 -59 -177
-102 -222 -102 -38 0 -88 17 -88 31 0 13 78 72 253 189 267 180 366 286 422
455 15 43 29 112 32 152 6 69 8 74 38 93 142 87 217 204 314 485 29 83 65 183
81 222 l29 73 -25 6 c-15 4 -50 -2 -87 -16 -92 -32 -119 -35 -139 -13 -16 17
-16 20 8 51 14 18 84 70 155 117 l129 85 0 40 c0 22 -9 63 -20 92 -11 29 -20
71 -20 93 l1 40 296 235 c163 129 349 281 414 338 137 118 157 127 223 88 55
-32 77 -33 114 -1 83 70 261 156 557 270 307 118 460 193 576 281 166 127 256
289 276 497 7 76 14 72 -92 51z m-2601 -1207 c11 -8 17 -23 14 -38 -5 -37 -57
-39 -93 -3 -14 14 -24 32 -21 40 7 18 76 19 100 1z m-2074 -5537 c0 -57 -41
-90 -111 -90 l-40 0 15 29 c22 42 73 81 107 81 22 0 29 -5 29 -20z m490 -1240
c0 -28 -36 -93 -61 -111 -15 -11 -52 -23 -80 -26 l-52 -6 30 44 c49 70 98 108
141 109 12 0 22 -4 22 -10z m220 -263 c0 -22 -43 -55 -75 -59 -24 -2 -31 1
-33 18 -3 23 12 39 43 47 39 9 65 7 65 -6z m97 -133 c22 -22 24 -31 19 -67 -4
-23 -20 -70 -38 -105 l-31 -62 -28 47 c-16 27 -35 56 -43 66 -22 28 -67 37
-111 21 -45 -15 -49 -13 -41 14 9 28 41 47 124 71 39 12 74 26 77 31 11 18 46
10 72 -16z m625 -182 c-6 -39 19 -133 40 -154 27 -27 78 -17 142 30 43 32 58
37 106 37 55 0 55 0 58 -32 2 -18 -6 -49 -17 -72 -26 -50 -26 -51 2 -51 32 0
42 10 67 63 15 31 30 49 46 53 44 11 54 -1 54 -61 0 -55 0 -55 23 -44 12 6 40
31 62 55 23 25 52 46 68 48 32 6 33 -2 7 -54 -11 -22 -20 -57 -20 -79 0 -32 8
-47 45 -89 51 -57 75 -106 75 -155 0 -33 -1 -34 -49 -40 -70 -8 -108 -31 -141
-84 -16 -25 -31 -50 -32 -54 -3 -10 -283 52 -365 81 -130 45 -193 123 -201
247 -5 72 -7 79 -52 138 -73 97 -85 158 -42 223 13 20 22 23 71 20 52 -3 56
-5 53 -26z m913 -849 c9 -90 2 -107 -49 -111 -58 -5 -66 8 -66 104 l0 84 54 0
54 0 7 -77z"/>
<path d="M5480 12163 c-34 -190 -78 -311 -140 -385 -39 -47 -60 -48 -94 -3
-36 46 -65 52 -121 25 -58 -28 -92 -70 -156 -191 -61 -116 -106 -172 -158
-195 -37 -16 -38 -19 -26 -38 28 -42 44 -106 60 -237 9 -72 22 -146 29 -164
13 -31 16 -32 54 -25 85 15 127 70 176 233 15 49 32 101 37 115 10 26 11 26
25 8 8 -11 14 -32 14 -46 0 -15 5 -41 11 -59 9 -26 16 -31 44 -31 31 0 36 5
61 56 25 51 26 62 21 138 -3 45 -7 88 -9 95 -2 7 26 30 62 52 123 74 233 220
289 386 11 34 18 69 15 78 -4 9 -33 34 -65 56 -69 46 -83 69 -75 118 12 78 12
76 -15 79 -25 3 -27 0 -39 -65z"/>
<path d="M603 11958 c-17 -4 -41 -21 -53 -36 l-22 -27 22 -3 c25 -4 65 20 80
49 15 26 12 28 -27 17z"/>
<path d="M6250 11754 c0 -33 -9 -88 -20 -124 -11 -36 -20 -86 -20 -112 l0 -47
113 -84 c155 -116 190 -138 310 -202 96 -51 105 -54 110 -36 7 28 -12 50 -64
75 -49 24 -59 48 -38 98 18 43 13 120 -10 165 -26 53 -87 106 -217 193 -60 41
-121 87 -136 103 l-28 29 0 -58z"/>
<path d="M505 11728 c-16 -6 -54 -28 -82 -50 -29 -21 -59 -41 -67 -44 -9 -3
-20 -31 -26 -62 -6 -32 -36 -145 -65 -252 -74 -265 -92 -349 -107 -479 -11
-101 -10 -135 11 -349 21 -204 22 -247 12 -307 -15 -86 -49 -159 -102 -218
l-40 -46 26 -7 c72 -18 143 17 265 131 36 33 78 70 94 81 28 20 28 22 18 70
-19 88 -24 207 -13 314 6 58 15 155 21 215 16 154 8 199 -46 282 -51 78 -56
112 -18 142 30 23 26 36 -13 46 -44 10 -73 34 -73 58 0 21 7 25 62 35 85 16
91 23 71 94 -22 80 -9 118 70 204 108 118 124 155 65 153 -18 0 -46 -5 -63
-11z"/>
<path d="M3252 10670 c-56 -13 -79 -44 -87 -113 -3 -34 -8 -79 -11 -99 -7 -45
6 -49 64 -19 78 40 112 97 112 187 0 60 -4 62 -78 44z"/>
<path d="M9927 10564 c-14 -14 -7 -109 9 -132 13 -19 24 -22 57 -20 l42 3 0
75 0 75 -50 3 c-28 2 -54 0 -58 -4z"/>
<path d="M4160 8849 c-225 -13 -295 -34 -335 -101 -29 -49 -6 -75 95 -107 38
-11 202 -41 230 -41 21 0 154 104 193 150 22 25 27 41 25 69 -4 43 2 42 -208
30z"/>
<path d="M8399 8521 c-25 -5 -60 -16 -77 -25 -30 -16 -32 -20 -32 -72 l0 -55
135 3 c115 2 138 -1 152 -14 13 -14 14 -20 4 -31 -14 -17 -86 -37 -134 -37
-42 0 -51 -17 -37 -70 7 -28 27 -54 68 -90 31 -28 62 -61 68 -73 11 -20 9 -24
-29 -42 -56 -27 -78 -71 -75 -150 l3 -60 45 3 c94 7 166 64 190 151 5 20 10
122 10 227 0 105 5 215 10 244 11 60 9 63 -50 80 -50 14 -196 21 -251 11z"/>
<path d="M3975 8475 c-5 -2 -42 -10 -82 -20 -39 -9 -144 -43 -232 -75 -88 -33
-189 -65 -225 -71 l-66 -12 0 -38 c0 -34 3 -38 56 -65 43 -22 57 -34 61 -56 4
-20 10 -27 22 -24 66 20 136 26 345 26 l239 0 -6 38 c-5 38 -27 91 -68 165
l-21 38 24 49 25 50 -31 -1 c-17 0 -35 -2 -41 -4z"/>
<path d="M6515 8438 c-2 -7 -9 -49 -15 -93 -17 -119 -54 -269 -115 -467 -30
-97 -55 -179 -55 -183 0 -10 61 36 103 78 91 91 155 227 227 481 41 143 42
150 24 163 -42 30 -161 45 -169 21z"/>
<path d="M3435 8049 c-33 -9 -66 -36 -91 -74 -21 -33 -8 -49 51 -64 25 -6 45
-16 45 -22 0 -6 -13 -21 -28 -34 -16 -13 -48 -57 -71 -96 l-41 -72 56 7 c98
11 164 59 188 135 8 25 22 72 31 104 l16 58 25 -20 c62 -49 148 -51 251 -6 51
23 138 83 131 91 -2 2 -22 -3 -43 -11 -52 -18 -182 -18 -315 0 -118 16 -162
17 -205 4z"/>
<path d="M7442 7929 c-81 -41 -159 -173 -195 -326 -17 -75 -22 -72 101 -43
193 46 284 135 299 293 5 62 5 63 -23 76 -54 25 -134 25 -182 0z"/>
<path d="M4644 7826 c-23 -7 -46 -16 -52 -20 -6 -4 16 -66 60 -169 39 -89 82
-199 96 -244 30 -94 41 -100 106 -62 20 12 51 21 70 21 l33 0 -1 59 c-1 81 18
100 113 108 77 7 108 26 113 70 3 20 -4 25 -44 37 -26 8 -97 48 -158 88 -60
41 -129 83 -152 95 -57 27 -133 34 -184 17z"/>
<path d="M3605 7715 c-108 -23 -171 -59 -200 -115 -61 -119 58 -311 252 -407
65 -32 89 -39 153 -41 64 -3 84 0 120 18 39 20 42 20 35 3 -81 -186 -78 -399
6 -526 70 -106 160 -151 425 -218 106 -26 201 -52 210 -57 13 -7 -4 -23 -91
-81 -128 -86 -235 -141 -329 -170 -88 -27 -206 -28 -275 -2 l-48 18 -16 -27
c-9 -15 -51 -60 -94 -101 -170 -162 -212 -208 -237 -257 -14 -28 -26 -55 -26
-60 0 -24 211 28 442 109 536 188 669 227 856 250 l99 12 17 66 c39 153 48
238 53 481 l5 246 62 33 c210 115 360 247 429 379 42 79 43 82 23 82 -24 0
-55 48 -62 98 -6 43 -40 92 -63 92 -6 0 -37 -57 -71 -127 -81 -169 -137 -258
-204 -322 -58 -54 -158 -108 -219 -118 -48 -7 -124 29 -227 107 -90 69 -142
94 -175 86 -20 -5 -23 -1 -29 32 -3 20 -19 57 -36 82 -16 25 -30 50 -30 57 0
21 -99 43 -197 43 -62 0 -134 -9 -215 -26 -166 -35 -226 -44 -244 -37 -22 8
-50 70 -64 141 -15 73 -8 173 15 228 8 20 14 38 13 39 -2 1 -30 -3 -63 -10z
m836 -697 c220 -109 295 -165 325 -243 44 -117 -39 -193 -221 -203 -197 -10
-319 62 -376 222 -26 75 -25 176 2 236 20 45 58 93 69 88 3 -2 94 -47 201
-100z"/>
<path d="M4370 6879 c-40 -12 -62 -29 -38 -29 9 0 43 -30 75 -66 51 -56 64
-66 101 -71 33 -4 42 -3 42 9 0 9 16 28 35 42 27 21 35 34 35 60 0 29 -4 34
-37 45 -53 17 -171 22 -213 10z"/>
<path d="M7087 7653 c-4 -3 -7 -13 -7 -22 0 -103 -99 -196 -246 -232 -27 -6
-50 -13 -52 -14 -2 -2 12 -34 31 -72 37 -73 78 -128 191 -258 134 -155 182
-255 187 -391 l3 -69 -77 -3 c-73 -3 -77 -4 -77 -26 0 -26 24 -50 60 -61 31
-9 60 -34 60 -50 0 -7 -11 -20 -25 -29 -37 -24 -55 -67 -74 -182 l-18 -104 33
-25 c78 -60 113 -173 117 -375 l2 -130 37 -10 c26 -8 51 -26 80 -62 81 -97
111 -118 163 -118 29 0 55 34 55 74 0 31 -45 80 -132 146 l-47 35 -1 91 c0 70
-8 123 -35 230 -19 76 -38 164 -41 195 -8 71 -7 71 159 105 178 36 231 68 252
154 5 23 2 26 -57 43 -111 32 -189 101 -223 198 -29 80 -25 88 85 185 195 171
310 229 450 227 41 0 88 -6 104 -12 27 -11 28 -13 21 -58 -4 -26 -19 -79 -35
-118 -40 -101 -44 -127 -26 -170 16 -36 17 -37 57 -32 82 11 151 97 185 228
33 129 7 347 -51 424 -15 19 -16 19 -63 1 -26 -10 -156 -56 -289 -102 -262
-90 -387 -139 -472 -185 -30 -16 -63 -29 -74 -29 -33 0 -102 46 -131 88 -19
28 -116 251 -116 268 0 1 11 -1 24 -3 20 -4 26 2 41 39 22 54 30 154 16 191
-10 26 -30 35 -44 20z"/>
<path d="M6421 7610 c-33 -63 -29 -70 34 -70 l55 0 0 55 0 55 -34 0 c-30 0
-37 -5 -55 -40z"/>
<path d="M11736 7478 c-16 -62 2 -192 43 -311 35 -101 83 -180 151 -247 l65
-65 3 36 c2 19 -4 68 -13 107 -8 40 -22 105 -31 145 -16 71 -15 202 1 255 7
20 4 22 -33 22 -33 0 -49 8 -87 40 -53 45 -89 52 -99 18z"/>
<path d="M11630 7187 c0 -7 14 -75 30 -152 62 -287 127 -447 226 -554 55 -59
139 -120 150 -108 3 3 -44 129 -104 279 -102 254 -156 403 -182 506 l-11 42
-54 0 c-38 0 -55 -4 -55 -13z"/>
<path d="M5236 6946 c-63 -62 -108 -216 -86 -295 11 -41 48 -91 68 -91 11 0
26 49 52 180 22 104 22 180 2 217 -9 14 -13 13 -36 -11z"/>
<path d="M7686 6877 c-48 -12 -150 -105 -144 -133 6 -33 66 -64 122 -64 60 1
90 15 117 56 20 31 27 118 9 129 -26 16 -68 21 -104 12z"/>
<path d="M11614 6634 c-14 -57 2 -122 52 -206 27 -46 63 -111 81 -146 l32 -63
-30 -47 c-42 -66 -59 -132 -59 -228 0 -100 15 -179 74 -399 25 -93 46 -177 46
-186 0 -15 -5 -15 -52 -2 -41 10 -65 11 -105 2 -29 -5 -55 -14 -58 -19 -6 -10
55 -242 84 -321 54 -144 154 -230 312 -269 42 -11 47 -15 59 -53 9 -31 33 -62
90 -118 61 -59 80 -85 86 -113 7 -43 -11 -70 -54 -81 -54 -14 -55 -22 -11
-104 73 -136 151 -219 234 -251 23 -9 27 -7 35 16 14 35 59 50 167 57 123 8
163 29 163 89 0 14 -5 18 -15 14 -8 -3 -28 -1 -44 5 -30 10 -41 32 -41 81 0
41 -20 76 -52 90 -36 16 -35 23 2 38 25 10 38 10 73 -3 42 -16 67 -20 99 -18
16 1 15 5 -3 58 -41 119 -100 202 -282 393 -162 169 -221 244 -271 346 -32 66
-36 81 -36 155 0 231 -90 593 -209 841 -68 142 -175 300 -266 392 -41 42 -80
76 -85 76 -5 0 -13 -11 -16 -26z m936 -1934 c21 -21 28 -80 10 -80 -6 0 -25 7
-42 16 -24 12 -36 14 -49 6 -25 -16 -55 18 -40 46 13 24 26 30 69 31 19 1 40
-7 52 -19z m-261 -380 c25 -28 45 -40 64 -40 31 0 35 -15 10 -42 -44 -49 -133
5 -133 81 0 24 5 41 11 41 6 0 28 -18 48 -40z m259 -56 c22 -15 22 -17 6 -35
-9 -10 -22 -19 -27 -19 -18 0 -47 32 -47 52 0 23 37 24 68 2z"/>
<path d="M8736 6268 c-11 -12 -29 -18 -59 -18 -37 0 -45 -4 -60 -30 -31 -52
-70 -92 -122 -125 -95 -61 -143 -73 -475 -120 -58 -8 -114 -17 -126 -21 -17
-4 -24 1 -34 25 -16 39 -66 84 -131 116 -53 27 -231 78 -253 73 -10 -2 -7 -22
14 -85 76 -228 211 -401 403 -517 l58 -34 87 44 c108 55 183 74 289 74 l83 0
0 29 c0 25 -6 31 -34 41 -43 14 -57 30 -49 58 4 16 9 19 22 13 51 -26 221 -29
389 -7 62 9 118 18 123 21 12 8 12 52 -1 76 -6 10 -28 28 -49 38 -20 11 -43
27 -50 35 -13 15 -18 62 -9 71 3 3 37 9 76 14 91 11 177 1 352 -43 152 -38
210 -50 210 -41 0 20 -45 87 -79 118 -65 59 -130 86 -324 136 -64 17 -144 41
-176 54 -57 23 -60 23 -75 5z"/>
<path d="M4880 5877 c0 -44 -32 -155 -70 -247 -18 -41 -42 -105 -55 -142 l-24
-68 45 -61 c44 -59 88 -89 133 -89 41 0 121 259 121 390 0 120 -37 196 -112
236 -37 19 -38 19 -38 -19z"/>
<path d="M11280 5667 c-27 -13 -36 -43 -25 -84 8 -32 59 -53 130 -53 l55 0 0
46 c0 37 -5 51 -29 75 -33 32 -86 39 -131 16z"/>
<path d="M11161 5328 c-64 -313 -75 -540 -35 -685 6 -21 3 -23 -30 -23 -19 0
-50 9 -68 20 -18 11 -45 20 -60 20 -22 0 -31 -8 -53 -56 -63 -132 -84 -336
-50 -469 48 -183 165 -311 313 -338 31 -6 32 -5 32 26 -1 59 -34 111 -109 172
-72 58 -103 98 -115 149 -7 27 -6 28 21 22 43 -11 73 -37 134 -116 56 -74 105
-109 157 -110 22 0 22 0 22 168 0 92 -7 318 -15 502 -8 184 -15 433 -15 553
l0 217 -59 0 -60 0 -10 -52z"/>
<path d="M7890 5213 c-25 -8 -46 -16 -48 -18 -1 -1 65 -60 148 -131 243 -208
359 -276 503 -291 47 -5 57 -3 57 9 0 57 -224 302 -335 368 -123 73 -235 95
-325 63z"/>
<path d="M3872 5143 c-137 -49 -254 -283 -269 -540 l-6 -103 24 -2 c13 0 49 0
79 1 78 3 95 -12 93 -82 -2 -64 8 -73 66 -57 40 10 66 36 125 117 48 68 69 74
111 33 18 -17 35 -28 38 -23 16 25 91 227 112 300 28 97 33 211 11 283 -13 44
-14 45 -61 48 -59 4 -75 -10 -121 -100 -33 -65 -56 -88 -88 -88 -25 0 -20 53
10 111 15 31 24 63 22 82 -3 31 -5 32 -53 34 -27 1 -69 -5 -93 -14z"/>
<path d="M10191 5086 c-40 -43 -38 -95 8 -237 38 -116 51 -196 34 -212 -4 -4
-12 6 -19 22 -19 45 -66 66 -154 66 -125 0 -210 -58 -210 -144 0 -26 3 -32 15
-27 128 49 228 47 353 -8 l83 -35 19 32 c104 169 86 401 -40 527 -47 47 -58
49 -89 16z"/>
<path d="M8158 4504 c-76 -41 -54 -144 30 -144 31 0 32 1 32 43 0 23 7 55 15
71 13 24 13 31 3 38 -19 12 -50 9 -80 -8z"/>
<path d="M9925 4486 c-39 -11 -40 -12 -37 -56 5 -68 42 -123 104 -154 84 -42
92 -34 61 55 -10 26 -15 51 -11 54 3 4 25 -7 49 -24 45 -33 84 -39 114 -18 24
18 15 53 -25 94 -55 56 -163 77 -255 49z"/>
<path d="M8107 4244 c-10 -11 -8 -57 4 -93 12 -33 53 -61 90 -61 20 0 21 4 17
56 -3 37 -11 61 -24 74 -21 20 -76 35 -87 24z"/>
<path d="M10624 4216 c-34 -16 -68 -44 -105 -87 -30 -35 -82 -93 -116 -128
l-63 -64 41 -78 c73 -140 159 -215 279 -243 86 -21 95 -20 106 7 17 40 4 64
-87 154 -74 74 -89 95 -89 121 0 17 4 33 10 37 5 3 58 -41 118 -98 71 -68 129
-114 166 -132 64 -31 70 -29 82 33 12 63 -10 104 -107 199 -117 114 -143 157
-144 240 0 74 -8 78 -91 39z"/>
<path d="M5980 3943 c-23 -21 -31 -38 -33 -68 l-2 -40 97 -3 c72 -2 105 1 127
13 84 43 14 125 -109 125 -40 0 -55 -5 -80 -27z"/>
<path d="M4118 3890 c-66 -20 -167 -88 -239 -159 -137 -138 -200 -274 -207
-453 -3 -89 -1 -119 17 -178 24 -77 32 -82 96 -55 44 18 55 45 64 155 9 96 32
151 148 342 101 168 185 360 156 357 -4 0 -20 -4 -35 -9z"/>
<path d="M8131 3808 c-9 -24 -68 -82 -92 -90 -20 -7 15 -95 131 -329 120 -242
149 -331 159 -484 l6 -99 39 38 c21 22 50 64 65 95 24 52 26 66 26 196 0 116
-4 153 -24 220 -54 187 -172 385 -273 456 l-28 20 -9 -23z"/>
<path d="M5974 3706 c-84 -19 -149 -55 -131 -72 13 -14 384 -64 472 -64 13 0
-6 54 -27 77 -53 57 -200 85 -314 59z"/>
<path d="M10063 3560 c-75 -17 -118 -68 -163 -190 -17 -46 -43 -107 -58 -134
l-27 -50 -3 72 c-2 49 -7 72 -15 72 -30 0 -148 -82 -217 -151 -106 -107 -162
-206 -209 -376 l-19 -72 25 -16 c39 -26 83 -21 171 19 44 20 94 36 111 36 37
0 35 -3 49 115 13 112 36 184 73 227 l28 33 1 -47 c0 -26 -9 -70 -20 -98 -21
-52 -27 -110 -12 -110 16 0 87 57 133 107 73 78 144 203 188 328 25 70 55 224
46 233 -9 10 -47 11 -82 2z"/>
<path d="M5859 3410 c-37 -5 -88 -17 -113 -28 -46 -21 -96 -63 -96 -81 0 -5
34 -17 75 -26 59 -13 108 -16 218 -13 156 6 280 32 392 83 l60 28 -85 13 c-95
14 -317 35 -358 33 -15 -1 -57 -5 -93 -9z"/>
<path d="M5790 3193 c-94 -16 -175 -64 -206 -124 -20 -40 -18 -42 22 -34 85
15 191 -20 182 -62 -4 -19 -241 -108 -329 -123 -62 -11 -105 -6 -224 26 -27 7
-97 -41 -134 -91 -16 -22 -55 -89 -87 -150 -39 -72 -77 -128 -110 -161 -58
-57 -67 -86 -52 -178 17 -111 63 -176 206 -294 141 -117 187 -187 200 -306 l7
-60 60 -21 c33 -11 74 -29 92 -39 32 -20 73 -81 73 -110 0 -14 14 -16 90 -16
105 0 178 -14 241 -46 54 -27 105 -84 115 -127 6 -27 -1 -37 -76 -112 -46 -46
-104 -95 -129 -109 l-47 -25 -53 26 c-77 39 -148 42 -205 10 l-45 -25 -11 34
c-21 62 -48 69 -270 69 -194 0 -195 0 -253 28 -72 36 -166 122 -220 201 -22
33 -81 137 -130 231 -106 202 -141 256 -207 322 l-49 49 39 74 38 75 -51 34
c-168 112 -324 339 -467 676 -23 55 -45 103 -49 107 -17 19 -61 -45 -61 -89 0
-20 21 -73 52 -135 51 -98 53 -105 53 -182 0 -95 3 -100 95 -173 75 -59 76
-60 131 -208 157 -422 363 -793 615 -1110 99 -124 333 -362 439 -447 l70 -57
12 -85 c8 -57 21 -103 39 -135 32 -59 62 -77 304 -178 338 -142 325 -138 425
-137 55 0 144 12 230 29 116 23 156 27 233 22 l92 -5 113 53 c61 29 194 80
293 114 444 149 541 223 669 513 130 294 200 397 312 460 40 22 53 36 53 53 0
47 52 219 124 411 92 246 114 326 129 479 l12 120 77 81 c95 99 108 127 108
239 0 95 -15 139 -51 150 -28 9 -40 -7 -117 -155 -119 -228 -212 -495 -386
-1110 l-16 -55 -102 -39 c-142 -55 -168 -71 -168 -107 0 -16 11 -51 25 -78 29
-55 25 -77 -15 -86 -16 -3 -70 -33 -120 -65 -93 -60 -181 -91 -189 -67 -2 7
-20 28 -40 48 -45 46 -110 61 -241 57 l-93 -3 -3 -34 c-9 -81 -96 -144 -201
-145 -72 -1 -109 20 -131 74 -13 32 -13 32 10 26 102 -29 171 -14 195 42 8 19
13 35 11 37 -2 1 -57 30 -123 63 -66 34 -142 79 -170 99 -52 40 -115 115 -115
138 0 17 53 70 100 100 54 34 113 52 272 80 168 31 246 64 306 129 51 56 74
100 123 243 22 63 49 134 60 158 43 91 125 161 224 191 50 15 50 16 33 -56
-11 -48 -10 -54 7 -66 41 -30 48 -19 41 56 -18 182 -53 239 -285 469 l-186
184 -235 -9 c-380 -14 -421 -10 -496 39 l-49 32 208 3 c123 1 207 6 207 12 0
5 -13 42 -29 82 -16 40 -31 87 -35 103 l-7 30 -97 1 c-53 1 -192 13 -308 28
-191 24 -327 30 -394 19z m330 -298 c32 -17 50 -43 50 -74 0 -29 -56 -37 -156
-23 -44 7 -101 12 -127 12 -26 0 -47 4 -47 9 0 16 61 54 115 73 62 22 127 23
165 3z m405 -245 c178 -9 296 -10 374 -4 112 9 113 9 160 -17 171 -98 156
-379 -25 -455 -54 -23 -128 3 -220 77 -122 99 -269 107 -348 19 -53 -58 -69
-128 -64 -264 6 -122 28 -207 78 -288 l28 -47 -36 -3 c-33 -3 -41 -10 -79 -67
-23 -36 -48 -68 -55 -73 -30 -18 -58 -8 -85 33 -35 53 -44 167 -19 253 24 83
18 88 -112 84 l-105 -2 6 -71 c4 -39 13 -90 21 -113 15 -41 15 -42 -10 -59
-56 -36 -198 -22 -304 32 -43 22 -50 29 -50 55 0 37 23 50 89 50 75 0 93 11
114 66 41 111 30 249 -28 349 -32 55 -107 127 -164 159 l-49 26 -100 -40
c-142 -57 -208 -54 -231 11 -9 27 -13 30 -26 19 -9 -8 -15 -30 -15 -57 l0 -45
-31 26 c-26 22 -40 26 -94 26 -53 0 -68 4 -85 22 -11 12 -20 27 -20 34 0 21
124 128 188 162 102 54 195 83 352 108 103 16 555 13 945 -6z m-938 -1773 c34
-14 76 -28 94 -32 29 -7 30 -8 15 -24 -13 -12 -37 -16 -111 -16 -79 0 -98 3
-122 21 -30 22 -58 69 -49 82 8 14 106 -4 173 -31z m1223 -164 c0 -18 -55 -84
-95 -112 -179 -129 -510 -187 -765 -135 -96 19 -226 101 -259 163 -10 18 0 19
357 24 367 4 525 17 672 52 64 15 90 18 90 8z m300 -24 c-14 -48 -56 -114 -92
-145 -38 -31 -118 -69 -166 -78 l-33 -6 18 31 c51 86 144 176 218 210 57 27
65 25 55 -12z m-517 -401 c11 -39 -18 -58 -90 -58 l-63 0 0 40 0 40 74 0 c68
0 74 -2 79 -22z m-503 -33 c16 -8 34 -24 40 -34 9 -19 15 -101 6 -101 -13 0
-146 45 -171 57 -35 18 -73 51 -86 76 -9 16 -2 17 86 17 66 0 105 -5 125 -15z"/>
<path d="M9255 3028 c-216 -100 -342 -205 -407 -339 -44 -91 -59 -154 -61
-256 l-2 -78 -48 -6 c-27 -3 -52 -11 -57 -19 -24 -38 113 -66 183 -37 44 19
47 39 17 106 -28 60 -26 68 19 74 54 7 82 30 137 115 75 116 106 131 193 92
24 -11 45 -20 47 -20 2 0 4 13 4 28 0 32 25 108 63 192 13 30 28 73 31 95 7
40 -6 95 -21 95 -5 0 -48 -19 -98 -42z"/>
<path d="M7500 2580 c0 -39 1 -40 35 -40 34 0 35 1 35 40 0 39 -1 40 -35 40
-34 0 -35 -1 -35 -40z"/>
<path d="M1151 1402 c-11 -22 -72 -88 -136 -147 -117 -109 -155 -159 -173
-226 l-9 -35 53 4 c69 6 108 -11 128 -53 20 -42 20 -51 -3 -102 l-19 -42 62
-29 c80 -37 134 -86 172 -154 27 -49 29 -60 28 -153 0 -81 -5 -109 -22 -149
-16 -35 -18 -47 -8 -43 44 17 145 29 206 25 55 -4 81 -12 118 -35 63 -39 82
-30 123 55 16 35 29 65 27 67 -2 1 -30 15 -63 31 -281 135 -323 544 -92 886
49 73 48 77 -15 97 -47 15 -82 1 -174 -69 -74 -57 -93 -66 -145 -72 -31 -3
-34 -1 -37 26 -2 16 6 51 19 77 36 77 -2 115 -40 41z"/>
</g>
</svg>
