<?xml version="1.0" standalone="no"?>
<!DOCTYPE svg PUBLIC "-//W3C//DTD SVG 20010904//EN"
 "http://www.w3.org/TR/2001/REC-SVG-20010904/DTD/svg10.dtd">
<svg version="1.0" xmlns="http://www.w3.org/2000/svg"
 width="30" height="30" viewBox="0 0 1280.000000 1040.000000"
 preserveAspectRatio="xMidYMid meet">
<metadata>
Created by potrace 1.15, written by Peter Selinger 2001-2017
</metadata>
<g transform="translate(0.000000,1040.000000) scale(0.100000,-0.100000)"
fill="#ffffff" stroke="none">
<path d="M10830 10393 c-14 -2 -56 -10 -95 -18 -60 -13 -73 -20 -93 -49 -28
-42 -97 -80 -184 -101 -65 -17 -68 -16 -127 4 -34 12 -79 21 -101 21 -35 0
-46 -6 -78 -41 l-38 -41 -50 15 c-27 9 -68 18 -92 20 l-43 5 -41 -61 c-23 -34
-42 -64 -44 -66 -1 -1 -18 8 -36 22 -51 39 -174 94 -263 118 -114 31 -305 31
-430 1 -242 -60 -460 -220 -584 -429 -81 -137 -130 -353 -115 -504 6 -63 5
-67 -16 -74 -56 -18 -160 18 -228 79 -55 49 -123 96 -139 96 -25 0 -63 -47
-63 -78 0 -16 9 -55 20 -87 11 -32 20 -62 20 -67 0 -17 -118 52 -200 118 -101
80 -188 123 -264 131 -53 5 -55 5 -61 -20 -4 -16 1 -42 14 -72 32 -73 26 -79
-31 -34 -111 84 -271 144 -497 183 -212 38 -207 38 -220 13 -15 -28 -68 -65
-112 -77 -19 -6 -101 -10 -184 -10 -166 0 -217 -9 -257 -47 -33 -31 -43 -63
-20 -63 99 0 597 -74 730 -108 l73 -19 32 36 c18 20 42 49 53 65 l21 29 50
-30 c60 -37 172 -87 267 -119 l69 -24 38 31 c22 17 44 40 50 50 14 27 25 24
75 -20 60 -53 160 -111 327 -190 l139 -67 -49 -27 c-86 -46 -163 -61 -313 -60
l-135 0 65 -29 c83 -39 187 -48 277 -25 34 9 158 65 275 125 118 60 232 113
256 117 52 8 101 -18 139 -77 35 -52 42 -160 18 -276 -9 -46 -15 -85 -13 -88
9 -8 78 18 115 45 54 39 100 114 121 199 10 40 21 75 25 78 3 4 40 7 82 9 83
2 108 16 120 66 6 25 1 29 -117 87 -194 96 -311 201 -383 345 l-34 68 26 72
c82 232 220 423 368 508 91 53 174 72 284 66 111 -6 173 -25 366 -115 171 -79
245 -104 330 -109 l70 -5 143 95 143 95 77 -27 c138 -50 143 -50 182 17 24 40
37 40 154 1 342 -114 566 -315 886 -793 l92 -139 -12 -54 c-30 -135 34 -225
308 -430 83 -63 152 -118 152 -121 0 -4 -38 -26 -84 -50 -151 -77 -215 -154
-216 -257 0 -107 60 -180 248 -307 126 -84 189 -136 212 -173 l22 -35 -32 -50
c-89 -139 -244 -213 -440 -213 -175 0 -281 41 -420 162 -111 95 -163 124 -217
119 -36 -3 -39 -5 -47 -45 -18 -88 56 -158 219 -208 93 -29 129 -60 214 -187
72 -109 107 -145 163 -174 70 -36 138 -34 263 7 56 18 123 33 152 33 44 1 56
-3 81 -28 36 -34 48 -66 23 -66 -9 0 -88 -18 -176 -41 -140 -35 -171 -40 -245
-37 -98 5 -118 13 -240 103 -108 79 -108 79 -226 111 -73 19 -125 26 -199 27
-192 1 -270 -39 -500 -263 -179 -174 -215 -202 -364 -285 -183 -102 -231 -170
-231 -329 0 -89 -1 -95 -22 -102 -54 -17 -104 -62 -117 -106 -7 -24 -37 -99
-66 -168 -29 -69 -56 -144 -60 -166 -8 -52 16 -117 39 -108 25 10 80 91 140
208 31 61 64 118 73 128 16 17 17 17 36 1 11 -10 33 -38 49 -61 18 -26 45 -50
66 -59 32 -13 36 -13 45 2 12 22 40 50 61 62 16 9 14 16 -13 86 -65 163 -89
317 -68 438 7 44 10 47 45 54 20 4 66 20 102 37 55 26 92 58 240 207 187 187
232 220 333 241 124 25 208 -5 374 -131 162 -125 205 -144 318 -144 89 0 91 0
165 46 94 57 111 63 293 94 81 13 162 31 181 39 47 20 114 82 138 129 23 45
19 74 -17 121 -14 18 -26 48 -27 66 -3 34 -2 35 42 42 134 20 125 15 174 88
145 216 204 415 194 656 -3 85 -8 108 -35 164 -64 136 -136 202 -373 345 -189
113 -260 165 -312 225 -69 80 -89 125 -82 185 10 83 -17 128 -165 279 -139
142 -164 174 -185 234 -13 35 -12 45 6 98 33 98 11 228 -64 391 -127 277 -368
435 -658 431 -41 0 -86 -2 -100 -5z"/>
<path d="M9161 9825 c-74 -17 -231 -92 -277 -133 l-31 -27 9 -110 c4 -60 14
-155 21 -209 l12 -99 39 -13 c21 -8 64 -34 94 -59 70 -58 98 -59 154 -7 36 34
42 45 46 93 3 45 -3 76 -32 163 -20 59 -36 111 -36 116 0 4 60 32 133 61 72
29 158 65 190 81 53 26 57 30 44 48 -61 87 -220 128 -366 95z"/>
<path d="M4690 9388 c-63 -32 -61 -88 5 -141 19 -15 35 -33 35 -39 0 -22 -136
1 -326 56 -218 62 -323 81 -397 71 -60 -8 -152 -44 -140 -55 27 -24 272 -99
659 -200 148 -39 304 -82 347 -96 l79 -24 31 22 c55 39 130 36 286 -11 155
-47 204 -51 252 -18 28 19 78 87 79 108 0 3 -37 9 -82 12 -169 12 -307 62
-535 194 -82 47 -173 97 -203 112 -54 27 -55 27 -90 9z"/>
<path d="M3370 9233 c-111 -9 -281 -36 -388 -63 -106 -27 -282 -100 -282 -118
0 -9 370 2 570 18 180 13 513 17 618 6 l72 -8 0 27 c0 38 -55 88 -121 108 -98
31 -294 44 -469 30z"/>
<path d="M6110 9203 c-248 -38 -317 -61 -382 -129 -21 -21 -38 -42 -38 -47 0
-6 63 -7 148 -5 116 4 159 9 206 26 73 27 118 61 140 107 28 59 23 62 -74 48z"/>
<path d="M10445 8942 c-80 -37 -134 -140 -120 -227 11 -76 59 -134 146 -179
65 -33 88 -39 162 -43 103 -7 184 8 253 46 48 26 49 27 47 73 -3 102 -115 243
-244 308 -82 42 -182 51 -244 22z"/>
<path d="M2406 8864 c-71 -17 -193 -74 -318 -147 -51 -30 -126 -71 -165 -91
-45 -22 -73 -42 -73 -52 0 -9 -9 -27 -20 -41 -23 -30 -26 -51 -6 -59 7 -3 110
45 229 106 252 130 342 165 451 174 101 9 139 25 155 65 23 55 13 61 -96 60
-54 0 -124 -7 -157 -15z"/>
<path d="M8024 8664 c-17 -7 -80 -20 -140 -29 -60 -9 -127 -21 -149 -26 -79
-21 -157 -81 -141 -108 10 -16 69 -18 140 -5 90 18 127 18 151 1 16 -13 6 -20
-104 -81 -188 -105 -258 -163 -305 -255 -20 -39 -17 -38 47 9 26 19 121 79
210 132 342 205 333 196 282 257 l-26 30 46 20 c45 20 56 40 33 58 -9 7 -23 6
-44 -3z"/>
<path d="M5621 8605 c-82 -38 -172 -107 -240 -182 -65 -71 -125 -178 -119
-210 5 -28 51 -28 112 1 109 52 114 32 18 -68 -86 -91 -131 -167 -160 -273
l-20 -71 21 -44 c20 -39 22 -59 23 -243 1 -210 8 -259 46 -315 27 -39 83 -85
115 -95 19 -5 25 -1 33 19 16 43 42 31 88 -44 103 -165 231 -262 323 -243 39
7 37 15 -11 42 -102 57 -192 152 -330 346 -35 50 -65 92 -67 94 -2 3 -9 -1
-15 -7 -9 -9 -9 -24 1 -62 10 -41 10 -54 0 -66 -10 -13 -15 -12 -35 7 -13 12
-30 40 -39 63 -18 49 -59 278 -57 322 1 39 28 95 102 204 69 102 80 123 80
149 0 33 -55 9 -120 -54 -98 -93 -113 -69 -45 70 23 46 66 105 129 175 86 95
144 175 162 223 5 15 0 17 -39 17 -33 0 -65 -10 -113 -35 -63 -33 -114 -45
-114 -27 0 21 81 99 194 187 169 131 198 176 77 120z"/>
<path d="M8800 8508 c-97 -48 -197 -193 -218 -315 -8 -46 -7 -53 7 -53 9 0 39
22 66 50 27 27 53 46 57 42 4 -4 -2 -28 -15 -52 -29 -59 -29 -147 0 -211 24
-53 145 -248 154 -249 4 0 9 10 13 23 21 79 -14 188 -77 242 -38 33 -42 40
-40 79 1 29 15 69 42 121 28 52 41 89 41 116 0 40 -2 42 -52 53 -37 8 -35 25
8 67 37 36 67 84 62 100 -2 5 -23 -1 -48 -13z"/>
<path d="M1725 8333 c-82 -24 -178 -56 -211 -73 -58 -28 -134 -97 -134 -120 0
-21 30 -21 76 -1 57 26 57 26 44 1 -6 -11 -83 -74 -173 -142 -333 -250 -517
-420 -657 -607 -91 -120 -185 -296 -230 -430 -29 -84 -41 -104 -108 -180 -96
-111 -164 -207 -212 -301 -37 -76 -75 -178 -68 -185 2 -2 27 15 56 38 68 55
127 135 204 277 43 81 75 127 107 155 86 74 233 220 326 322 l92 101 6 72 c8
91 45 160 113 212 26 21 111 65 187 100 191 85 271 159 292 270 7 35 6 35 -34
42 -23 3 -41 10 -41 15 0 26 200 154 368 236 56 27 102 55 102 62 0 8 12 41
26 74 14 34 24 71 22 83 -3 21 -5 21 -153 -21z"/>
<path d="M7747 7924 c-116 -114 -183 -200 -222 -287 -44 -96 -71 -267 -42
-267 16 0 68 50 103 98 51 69 97 112 121 112 13 0 23 -3 23 -7 0 -5 -16 -64
-36 -133 -40 -141 -53 -270 -35 -337 15 -54 39 -56 92 -8 57 51 65 47 73 -37
3 -39 20 -111 36 -159 31 -92 95 -229 113 -240 5 -4 28 -10 51 -13 64 -10 109
-46 266 -207 148 -152 198 -187 290 -206 32 -6 29 -2 -46 64 -214 189 -405
420 -494 592 -24 47 -37 52 -46 15 -5 -18 0 -41 15 -71 25 -51 26 -63 7 -63
-22 0 -74 87 -97 159 -22 73 -43 248 -37 322 3 44 1 48 -21 52 -37 7 -68 -12
-87 -52 -19 -42 -43 -71 -57 -71 -20 0 4 139 44 261 30 90 41 142 43 191 0 36
-2 69 -6 73 -19 20 -77 -12 -154 -86 -46 -44 -87 -79 -93 -79 -12 0 11 57 46
114 14 22 65 91 113 151 83 104 155 213 147 221 -2 2 -51 -44 -110 -102z"/>
<path d="M8560 7595 c0 -12 62 -97 122 -166 130 -152 321 -273 548 -348 52
-17 101 -34 108 -36 8 -3 2 -18 -19 -49 -34 -48 -33 -76 1 -76 11 0 62 9 113
21 96 21 169 56 187 89 9 17 7 20 -16 26 -19 5 -43 -1 -81 -20 -55 -27 -83
-33 -83 -17 0 25 17 45 66 76 60 38 97 96 76 117 -17 17 -80 -5 -127 -45 -59
-50 -79 -58 -148 -58 -132 -1 -245 63 -472 266 -146 131 -275 234 -275 220z"/>
<path d="M10096 6883 c-4 -5 -107 -10 -229 -13 l-222 -5 -53 -29 c-78 -44 -80
-50 -30 -80 56 -33 112 -44 251 -52 l115 -7 13 -31 c8 -17 27 -37 42 -44 26
-13 33 -11 95 26 78 47 141 109 173 170 18 37 20 45 8 53 -18 11 -42 4 -97
-28 -24 -14 -46 -22 -49 -19 -3 3 -1 19 5 35 9 24 8 31 -2 31 -7 0 -16 -3 -20
-7z"/>
<path d="M373 6541 c-44 -20 -127 -91 -144 -123 -7 -14 -6 -23 6 -34 37 -38
32 -58 -75 -269 -103 -203 -104 -205 -108 -287 -3 -75 -2 -86 20 -118 13 -19
27 -35 32 -35 4 0 45 100 91 223 96 257 188 452 268 569 43 64 52 83 40 87
-29 12 -89 5 -130 -13z"/>
<path d="M8696 6450 c61 -217 154 -405 270 -544 48 -59 58 -66 66 -52 17 31
-1 79 -57 154 -30 41 -74 113 -96 160 -88 189 -122 250 -159 293 l-39 44 15
-55z"/>
<path d="M5298 6276 c-11 -11 -12 -26 -5 -72 l10 -59 -142 -140 c-159 -157
-225 -207 -309 -231 -31 -9 -76 -23 -99 -31 -42 -14 -93 -54 -93 -73 0 -16 88
-12 227 11 130 22 279 28 322 14 22 -7 17 -11 -49 -41 -317 -147 -432 -513
-295 -943 l27 -84 -48 -94 c-48 -96 -66 -174 -47 -208 9 -15 14 -12 42 23 17
23 48 51 67 63 33 20 37 20 52 5 20 -19 21 -81 8 -327 l-9 -166 47 -43 c54
-50 99 -137 121 -236 8 -38 17 -79 20 -90 4 -19 -1 -22 -42 -28 -26 -3 -112
-36 -191 -72 -147 -68 -224 -94 -276 -94 -33 0 -34 -1 52 99 59 70 65 96 26
104 -42 8 -82 -8 -170 -69 -100 -68 -160 -81 -206 -44 -35 27 -35 35 2 93 17
26 30 59 30 73 l0 25 -72 -8 c-103 -11 -365 -8 -483 6 -336 41 -668 154 -895
306 -128 85 -130 87 -84 114 l37 22 -6 157 c-10 251 -46 422 -124 581 -49 103
-124 189 -180 209 -18 6 -33 8 -33 4 0 -4 34 -62 75 -129 92 -151 121 -208
152 -298 27 -79 39 -188 26 -224 -9 -22 -14 -16 -58 70 -92 180 -139 232 -238
260 l-29 8 6 -42 c10 -64 46 -131 134 -255 75 -106 102 -157 116 -224 4 -16 2
-28 -3 -28 -5 0 -12 15 -16 33 -17 86 -36 98 -99 68 -24 -11 -46 -27 -49 -36
-4 -8 12 -49 35 -93 73 -135 99 -191 105 -228 6 -34 5 -36 -15 -25 -11 6 -24
20 -27 31 -9 28 -40 43 -64 31 -28 -15 -41 -102 -50 -331 -12 -289 -31 -359
-131 -475 -29 -33 -59 -75 -67 -93 -50 -116 -77 -425 -54 -605 21 -161 63
-320 123 -470 l32 -77 75 -41 c281 -151 447 -352 512 -619 l19 -75 -30 -30
c-16 -16 -48 -68 -72 -114 l-43 -85 -70 -21 c-38 -12 -129 -52 -201 -89 -148
-77 -210 -90 -297 -63 l-48 15 -23 -46 c-42 -83 -49 -86 -183 -79 -240 11
-499 105 -748 272 -99 66 -252 193 -324 269 -62 67 -88 71 -106 16 -18 -55
-50 -52 -118 10 -72 66 -134 148 -183 244 -21 42 -45 78 -53 81 -7 3 -28 -4
-46 -15 -18 -11 -44 -20 -58 -20 -21 0 -28 7 -41 48 -24 74 -43 177 -56 302
-40 407 -27 360 -100 346 -60 -12 -73 7 -78 110 -3 74 2 118 32 264 43 203 54
333 36 409 l-12 51 55 68 c304 373 406 812 286 1238 -16 56 -61 185 -100 286
-39 101 -75 193 -80 206 -7 19 -12 21 -27 11 -11 -7 -30 -9 -44 -6 -23 6 -27
14 -39 89 -35 208 1 557 84 831 8 26 13 47 11 47 -19 0 -87 -46 -117 -79 -47
-52 -73 -105 -99 -199 -19 -70 -21 -102 -20 -357 l1 -280 40 -144 c99 -347
144 -649 145 -956 l1 -220 -38 -110 c-21 -60 -87 -211 -146 -335 -148 -306
-150 -314 -82 -308 42 4 41 12 17 -143 -9 -63 -16 -167 -16 -255 0 -402 126
-829 378 -1282 40 -72 49 -82 74 -82 15 0 42 9 60 20 18 11 42 20 54 20 23 0
79 -38 164 -111 79 -67 107 -79 190 -79 l71 0 94 -90 c82 -78 110 -97 207
-144 229 -110 475 -184 638 -193 87 -5 103 -2 191 26 153 49 179 43 316 -73
62 -53 115 -72 156 -57 36 14 35 34 -5 148 -18 50 -30 94 -27 97 3 3 38 10 78
16 122 17 242 -14 410 -106 71 -39 81 -36 81 26 0 54 -31 107 -111 195 l-73
80 46 3 c36 2 72 -7 165 -44 80 -32 139 -48 182 -52 l63 -5 -7 44 c-15 95 -55
158 -168 263 -89 83 -105 101 -97 117 6 10 10 62 10 116 0 123 4 129 63 114
25 -6 71 -11 101 -11 70 0 82 17 65 85 -16 63 -6 71 63 55 75 -18 156 -56 282
-134 121 -76 126 -75 126 10 0 90 -39 165 -174 333 -9 12 -7 13 14 7 72 -21
107 -27 245 -42 82 -9 176 -24 207 -34 l58 -18 0 27 c0 44 -45 125 -93 167
-25 22 -91 64 -146 94 -77 41 -100 58 -95 70 40 94 47 123 52 215 3 73 0 118
-12 165 -22 89 -90 226 -168 340 -35 52 -109 160 -163 240 -146 214 -212 369
-229 533 -6 55 -5 57 18 57 13 0 47 -4 75 -10 98 -18 356 -49 516 -60 88 -7
165 -17 172 -22 7 -5 19 -33 29 -61 31 -98 30 -97 152 -97 63 0 112 4 119 11
7 7 12 -1 16 -29 4 -21 15 -46 26 -56 18 -16 24 -15 132 23 63 21 176 62 252
90 197 74 183 74 248 4 99 -108 139 -212 139 -364 0 -117 -32 -234 -120 -445
-170 -403 -172 -407 -127 -412 16 -2 39 5 56 17 16 12 37 21 46 21 22 0 16
-50 -36 -277 -56 -248 -61 -290 -43 -387 124 -662 434 -1115 864 -1261 158
-54 277 -65 471 -43 139 15 168 8 368 -87 169 -81 255 -108 327 -103 65 4 75
23 46 83 -12 25 -22 57 -22 72 0 26 0 26 63 19 34 -4 109 -17 167 -28 140 -29
263 -30 309 -3 19 11 36 26 39 34 2 7 -42 58 -104 118 -76 74 -105 107 -94
111 8 3 32 20 52 38 42 38 33 39 213 -25 99 -35 193 -44 234 -22 21 12 23 18
19 62 -7 69 -43 118 -130 174 -40 26 -87 61 -105 78 l-32 30 6 121 c5 108 3
127 -17 179 -32 84 -108 161 -268 269 -150 101 -239 179 -276 242 -60 103 -74
247 -31 315 35 56 68 142 115 299 22 75 48 156 57 180 l16 43 44 -43 c59 -57
156 -177 189 -234 l27 -46 -26 -81 c-143 -448 47 -747 553 -870 194 -48 323
-61 600 -61 l255 -1 22 -26 c67 -78 217 -142 367 -157 86 -8 88 -8 98 14 8 16
8 40 0 76 -7 35 -7 57 0 65 34 42 183 48 351 14 153 -30 311 -28 324 5 10 26
-7 64 -52 114 -44 50 -54 73 -36 85 11 6 177 -57 353 -134 64 -28 119 -51 122
-51 2 0 8 25 12 56 20 162 -77 311 -277 425 l-58 34 -1 50 c-1 72 -24 171 -56
239 -58 123 -172 211 -332 255 -83 23 -108 38 -179 113 -58 62 -104 147 -124
228 -21 90 -14 280 20 535 45 326 42 568 -8 697 l-10 27 49 -6 c46 -5 51 -4
85 30 19 19 35 44 35 55 0 11 -19 35 -44 56 -103 84 -229 293 -290 481 -94
291 -111 589 -50 845 16 67 34 93 34 50 0 -25 34 -60 58 -60 10 0 27 20 45 53
15 28 74 116 130 193 152 209 207 326 207 441 0 48 -6 51 -58 24 -69 -35 -92
-73 -148 -234 -20 -56 -45 -119 -56 -142 -20 -39 -66 -95 -78 -95 -4 0 -10 55
-13 123 -8 147 -27 226 -70 285 -64 90 -69 70 -30 -116 24 -115 37 -282 22
-297 -3 -2 -36 -12 -75 -22 -38 -10 -70 -18 -72 -19 -2 -1 -21 -78 -42 -170
-56 -248 -116 -411 -189 -517 -16 -24 -27 -47 -24 -51 19 -18 58 -2 107 44 29
28 57 50 63 50 6 0 13 -49 16 -114 8 -137 37 -255 105 -431 73 -189 72 -179
22 -230 l-42 -42 40 -53 c50 -66 95 -158 119 -241 28 -100 23 -342 -11 -594
-35 -254 -44 -482 -23 -581 39 -184 127 -287 397 -466 96 -64 198 -134 225
-156 l51 -40 23 -131 c27 -148 25 -240 -6 -293 -31 -53 -59 -56 -138 -18 -131
64 -194 42 -257 -89 l-40 -83 -161 4 c-133 4 -172 9 -221 26 -77 28 -101 28
-139 -4 -24 -20 -37 -24 -66 -20 -20 3 -74 8 -121 11 -47 4 -155 15 -240 26
-393 49 -593 121 -742 270 -84 82 -124 152 -153 264 -19 75 -19 108 1 242 11
72 15 143 11 213 l-5 105 -62 63 c-91 93 -132 189 -195 464 l-27 116 27 56
c24 50 27 63 21 117 -12 102 -56 183 -118 215 -38 20 -44 18 -58 -16 -17 -42
-7 -84 45 -171 51 -88 65 -129 43 -129 -26 0 -95 -69 -112 -110 -10 -25 -20
-97 -26 -183 -11 -161 -13 -169 -75 -323 -47 -116 -75 -221 -75 -286 0 -33 -4
-38 -34 -48 -19 -6 -52 -24 -74 -39 l-39 -29 -6 -145 c-9 -184 3 -279 47 -372
45 -96 72 -125 189 -202 255 -165 294 -199 335 -280 52 -102 55 -243 8 -330
-15 -27 -68 -90 -117 -139 l-89 -88 -27 16 c-39 22 -116 33 -142 19 -12 -7
-32 -34 -46 -61 -13 -27 -33 -51 -42 -54 -94 -29 -515 -45 -693 -27 -211 22
-389 74 -534 155 -82 46 -201 156 -252 234 -42 63 -89 175 -105 254 -15 70
-23 78 -76 78 l-44 0 -38 83 c-47 102 -95 245 -118 357 -14 66 -18 130 -18
290 1 216 12 291 65 445 20 57 20 60 3 73 -12 9 -35 10 -76 6 -59 -7 -59 -7
-52 17 17 59 85 208 167 365 135 262 175 401 151 538 -14 83 -31 116 -105 206
-101 123 -215 396 -270 646 -26 121 -29 354 -6 476 14 74 14 78 -3 83 -24 8
-56 -2 -92 -27 -16 -11 -31 -18 -33 -15 -3 3 11 45 31 94 125 298 119 276 119
410 1 66 -2 124 -6 128 -13 13 -48 -16 -69 -56 -13 -26 -26 -85 -35 -157 -18
-139 -36 -201 -69 -232 l-24 -22 -10 38 c-20 76 -31 171 -31 269 l0 100 69 62
c73 66 101 111 101 163 0 32 0 32 -40 25 -88 -15 -34 40 139 141 138 81 221
171 221 241 0 19 -5 21 -42 16 -24 -2 -87 -13 -140 -24 -53 -10 -120 -19 -148
-19 l-52 0 24 28 c13 16 74 71 136 123 185 153 224 220 198 337 -8 35 -34 43
-58 18z"/>
<path d="M2277 5939 c-4 -13 -7 -44 -7 -69 0 -75 39 -141 154 -259 100 -103
136 -152 136 -187 0 -11 -5 -14 -17 -9 -10 3 -42 13 -71 20 -54 14 -98 8 -114
-17 -12 -21 54 -102 196 -238 78 -74 185 -179 238 -233 l98 -98 0 41 c0 79
-43 137 -175 238 -123 95 -169 140 -183 180 l-11 32 40 0 c30 0 69 -15 145
-55 109 -57 137 -64 166 -41 16 12 1 28 -151 169 -222 205 -317 318 -397 470
-36 68 -42 76 -47 56z"/>
<path d="M8906 5030 c-24 -30 -52 -84 -134 -260 -22 -47 -55 -103 -75 -125
l-36 -40 -1 33 c0 18 9 50 20 72 35 69 28 76 -42 38 -83 -45 -227 -184 -361
-348 -107 -131 -264 -300 -279 -300 -12 0 -9 172 3 232 18 85 58 158 121 222
57 57 58 59 28 52 -142 -28 -258 -289 -235 -531 8 -93 9 -88 -12 -91 -57 -9
-63 -14 -63 -52 0 -66 29 -225 53 -297 28 -83 71 -169 127 -257 l40 -63 0 66
c0 62 -4 75 -66 198 -58 115 -67 140 -72 201 -3 46 -1 70 6 70 6 0 14 -9 17
-21 14 -42 195 -291 195 -267 0 3 -11 35 -25 71 -37 98 -94 301 -107 379 -12
75 -7 88 36 88 45 0 115 49 238 167 72 68 148 136 170 149 l39 25 30 -26 c17
-14 39 -25 48 -25 31 0 271 256 333 355 37 60 68 150 68 201 0 40 -22 114 -34
114 -2 0 -16 -14 -30 -30z"/>
<path d="M7641 4147 c-107 -132 -165 -379 -149 -632 11 -177 58 -312 138 -399
43 -47 69 -61 51 -28 -19 36 -50 212 -61 349 -19 226 10 542 66 736 9 28 -9
18 -45 -26z"/>
</g>
</svg>
